<svg xml:space="preserve" style="enable-background:new 0 0 500 500;" viewBox="0 0 500 500" y="0px" x="0px" xmlns:xlink="http://www.w3.org/1999/xlink" xmlns="http://www.w3.org/2000/svg" id="Layer_1" version="1.1" class="wa__popup_icon-ninja" aria-label="NinjaTeam WhatsApp for WordPress" role="img" width="500"  height="500" ><g> <path d="M286.3,67C238,67,194,85.3,160.8,115.2l0-0.1l-13.2-27.8L84.9,49.2l8.5,66.4l27.1,21.1l-31.8-19.9l-60,8.9   l40.2,46.1l48.9,0.3C105.6,197,98.7,225,98.7,254.6c0,103.6,84,187.6,187.6,187.6s187.6-84,187.6-187.6S389.9,67,286.3,67z    M285.8,346.3c-111,0-171.9-63.2-171.9-92.5s62.2-91.5,171.9-91.5c109.5,0,172.8,62.1,172.8,91.5   C458.6,283.2,398.4,346.3,285.8,346.3z" fill="#A9A9A9" class="st0"></path> <ellipse ry="20.6" rx="20.6" cy="258.1" cx="357.9" class="st1" transform="matrix(0.7071 -0.7071 0.7071 0.7071 -77.6656 328.6796)" fill="#A9A9A9"></ellipse> <ellipse ry="20.6" rx="20.6" cy="258.1" cx="214" class="st1" transform="matrix(0.7071 -0.7071 0.7071 0.7071 -119.8129 226.9269)" fill="#A9A9A9"></ellipse></g></svg>